<?xml version="1.0" encoding="utf-8"?>
<!-- Generator: Adobe Illustrator 18.1.1, SVG Export Plug-In . SVG Version: 6.00 Build 0)  -->
<svg version="1.1" id="Layer_1" xmlns="http://www.w3.org/2000/svg" xmlns:xlink="http://www.w3.org/1999/xlink" x="0px" y="0px"
	 viewBox="0 0 162.7 142" enable-background="new 0 0 162.7 142" xml:space="preserve">
<g>
	<polygon fill="#FFFFFF" points="78.5,49.7 76.5,50.4 74.4,52.4 74.7,53.2 75.7,53.6 77.7,51.6 	"/>
	<polygon fill="#FFFFFF" points="77.5,48.1 75.3,48 72.7,49 72.7,50.1 73.3,50.6 76,49.6 	"/>
	<polygon fill="#FFFFFF" points="77,54.6 77.5,55.2 78.6,55.2 79.7,52.6 79.7,50.5 78.2,51.9 	"/>
	<polygon fill="#FFFFFF" points="80.5,52.8 80.5,55.6 81.5,56 82.2,55.7 82.2,52.8 81.3,50.9 	"/>
	<polygon fill="#FFFFFF" points="85.2,48.3 86.6,49.9 89.3,51 89.9,50.5 89.9,49.4 87.3,48.3 	"/>
	<polygon fill="#FFFFFF" points="87.4,45.9 85.5,46.7 87.5,47.6 90.3,47.6 90.7,46.5 90.3,45.9 	"/>
	<polygon fill="#FFFFFF" points="77.2,46.7 75.3,45.9 72.4,45.9 72,46.5 72.4,47.6 75.3,47.6 	"/>
	<polygon fill="#FFFFFF" points="83.1,50.5 83.1,52.6 84.2,55.2 85,55.3 85.8,54.5 84.7,51.9 	"/>
	<polygon fill="#FFFFFF" points="78.4,43.8 77.7,41.8 75.6,39.8 74.9,40 74.4,41 76.4,43 	"/>
	<polygon fill="#FFFFFF" points="84.3,43.8 86.3,43 88.3,41 87.8,40 87.1,39.8 85,41.8 	"/>
	<path fill="#FFFFFF" d="M81.4,43.4c-1.8,0-3.3,1.5-3.3,3.3c0,1.8,1.5,3.3,3.3,3.3s3.3-1.5,3.3-3.3C84.7,44.9,83.2,43.4,81.4,43.4z
		 M81.4,48.4c-0.9,0-1.7-0.7-1.7-1.7c0-0.9,0.7-1.7,1.7-1.7c0.9,0,1.7,0.7,1.7,1.7C83,47.6,82.3,48.4,81.4,48.4z"/>
	<polygon fill="#FFFFFF" points="85.2,45.2 87.3,45.4 90.1,44.4 90.2,43.6 89.4,42.8 86.8,43.8 	"/>
	<polygon fill="#FFFFFF" points="75.5,45.1 77.6,45.1 76.1,43.5 73.5,42.4 72.7,43.2 72.8,44 	"/>
	<polygon fill="#FFFFFF" points="79.8,42.9 79.7,40.8 78.6,38.2 77.5,38.2 77,38.8 78.2,41.5 	"/>
	<polygon fill="#FFFFFF" points="84.6,41.5 85.8,38.9 85,38.1 84.2,38.2 83,40.8 83.1,42.9 	"/>
	<polygon fill="#FFFFFF" points="82.2,40.7 82.2,37.8 81.5,37.4 80.5,37.8 80.5,40.6 81.3,42.6 	"/>
	<polygon fill="#FFFFFF" points="84.3,49.7 85.1,51.6 87.1,53.6 88.1,53.2 88.3,52.4 86.2,50.4 	"/>
	<path fill="#FFFFFF" d="M121.4,44.7l-6-6c3.1-7.2,1.7-16-4.2-21.9l0,0c-5.9-5.9-14.6-7.3-21.9-4.2l-5.9-5.9c-1.1-1.1-3-1.1-4.1,0
		l-6,6c-7.3-3.2-16.1-1.8-22,4.1c-5.9,5.9-7.3,14.8-4.1,22l-5.8,5.8c-1.1,1.1-1.1,3,0,4.1l5.8,5.8c-3.2,7.3-1.8,16.1,4.1,22l0,0
		c5.9,5.9,14.8,7.3,22,4.1l6,6c1.1,1.1,3,1.1,4.1,0l5.9-5.9c7.2,3.1,16,1.7,21.9-4.2c5.9-5.9,7.3-14.6,4.2-21.9l6-6
		C122.5,47.6,122.5,45.8,121.4,44.7z M102.7,30.1c0.1,1.1,3.1,3.6,4.2,4.7c2.5,2.6,0.6,5.2,0.6,5.2c-2.2,2.6-4-0.3-4-0.3
		C100.7,34.7,102.7,30.1,102.7,30.1z M105.1,46.6c0,1.2-1,2.2-2.2,2.2c-1.2,0-2.2-1-2.2-2.2c0-1.2,1-2.2,2.2-2.2
		C104.1,44.4,105.1,45.4,105.1,46.6z M99.7,33.5c-1,2.2,1.2,4.1,2.1,5.2c2.6,3.1,0.3,4.7,0.3,4.7c-2.3,1.7-4-0.7-4.6-1.8
		C95.1,37.1,99.7,33.5,99.7,33.5z M87.6,21.5c0.3-1,1.6-2.6,4.2-1c1.1,0.7,3,2.9,4.6,2.6c0,0-2.2,4-7.6,2.1
		C87.4,24.8,87,23.6,87.6,21.5z M91.1,51c1.5,1.5,1.5,3.9,0,5.4L91,56.5c-1.5,1.5-3.9,1.5-5.4,0l-0.4-0.4v0.6c0,2.1-1.7,3.8-3.8,3.8
		h-0.1c-2.1,0-3.8-1.7-3.8-3.8v-0.6l-0.4,0.4c-1.5,1.5-3.9,1.5-5.4,0l-0.1-0.1c-1.5-1.5-1.5-3.9,0-5.4l0.4-0.4h-0.6
		c-2.1,0-3.8-1.7-3.8-3.8v-0.1c0-2.1,1.7-3.8,3.8-3.8H72l-0.4-0.4c-1.5-1.5-1.5-3.9,0-5.4l0.1-0.1c1.5-1.5,3.9-1.5,5.4,0l0.4,0.4
		v-0.6c0-2.1,1.7-3.8,3.8-3.8h0.1c2.1,0,3.8,1.7,3.8,3.8v0.6l0.4-0.4c1.5-1.5,3.9-1.5,5.4,0l0.1,0.1c1.5,1.5,1.5,3.9,0,5.4l-0.4,0.4
		h0.6c2.1,0,3.8,1.7,3.8,3.8v0.1c0,2.1-1.7,3.8-3.8,3.8h-0.6L91.1,51z M89.4,26.7c1.1,0.9,3,3.2,5.2,2.1c0,0-3.6,4.6-8.1,2.1
		c-1.1-0.6-3.5-2.3-1.8-4.6C84.7,26.4,86.3,24.1,89.4,26.7z M84.2,18.5c1.2,0,2.2,1,2.2,2.2c0,1.2-1,2.2-2.2,2.2
		c-1.2,0-2.2-1-2.2-2.2C82,19.4,83,18.5,84.2,18.5z M83.4,25.6c0,1.2-1,2.2-2.2,2.2c-1.2,0-2.2-1-2.2-2.2c0-1.2,1-2.2,2.2-2.2
		C82.5,23.4,83.4,24.4,83.4,25.6z M78.4,18.5c1.2,0,2.2,1,2.2,2.2c0,1.2-1,2.2-2.2,2.2c-1.2,0-2.2-1-2.2-2.2
		C76.2,19.4,77.2,18.5,78.4,18.5z M78,26.4c1.7,2.3-0.7,4-1.8,4.6c-4.4,2.4-8.1-2.1-8.1-2.1c2.2,1,4.1-1.2,5.2-2.1
		C76.4,24.1,78,26.4,78,26.4z M69.5,21.6c2.6-2.5,5.2-0.6,5.2-0.6c2.6,2.2-0.3,4-0.3,4c-5.1,2.7-9.7,0.7-9.7,0.7
		C65.9,25.7,68.3,22.7,69.5,21.6z M63.1,33.5c0,0,4.6,3.6,2.1,8.1c-0.6,1.1-2.3,3.5-4.6,1.8c0,0-2.3-1.6,0.3-4.7
		C61.9,37.6,64.1,35.7,63.1,33.5z M62,46.8c0,1.2-1,2.2-2.2,2.2c-1.2,0-2.2-1-2.2-2.2c0-1.2,1-2.2,2.2-2.2C61,44.6,62,45.6,62,46.8z
		 M54.8,36.3c0.7-1.1,2.9-3,2.6-4.6c0,0,4,2.2,2.1,7.6c-0.5,1.4-1.7,1.8-3.8,1.2C54.7,40.1,53.2,38.8,54.8,36.3z M54.9,41.8
		c1.2,0,2.2,1,2.2,2.2c0,1.2-1,2.2-2.2,2.2c-1.2,0-2.2-1-2.2-2.2C52.7,42.7,53.7,41.8,54.9,41.8z M52.7,49.7c0-1.2,1-2.2,2.2-2.2
		c1.2,0,2.2,1,2.2,2.2c0,1.2-1,2.2-2.2,2.2C53.7,51.9,52.7,50.9,52.7,49.7z M60,63.3c-0.1-1.1-3.1-3.6-4.2-4.7
		c-2.5-2.6-0.6-5.2-0.6-5.2c2.2-2.6,4,0.3,4,0.3C62,58.7,60,63.3,60,63.3z M63.1,59.9c1-2.2-1.2-4.1-2.1-5.2
		c-2.6-3.1-0.3-4.7-0.3-4.7c2.3-1.7,4,0.7,4.6,1.8C67.7,56.3,63.1,59.9,63.1,59.9z M75.1,71.9c-0.3,1-1.6,2.6-4.2,1
		c-1.1-0.7-3-2.9-4.6-2.6c0,0,2.2-4,7.6-2.1C75.3,68.6,75.7,69.8,75.1,71.9z M73.3,66.7c-1.1-0.9-3-3.2-5.2-2.1c0,0,3.6-4.6,8.1-2.1
		c1.1,0.6,3.5,2.3,1.8,4.6C78,67.1,76.4,69.4,73.3,66.7z M78.6,75c-1.2,0-2.2-1-2.2-2.2c0-1.2,1-2.2,2.2-2.2c1.2,0,2.2,1,2.2,2.2
		C80.7,74,79.8,75,78.6,75z M79.3,67.8c0-1.2,1-2.2,2.2-2.2c1.2,0,2.2,1,2.2,2.2c0,1.2-1,2.2-2.2,2.2C80.3,70,79.3,69,79.3,67.8z
		 M84.4,75c-1.2,0-2.2-1-2.2-2.2c0-1.2,1-2.2,2.2-2.2c1.2,0,2.2,1,2.2,2.2C86.5,74,85.6,75,84.4,75z M84.7,67.1
		c-1.7-2.3,0.7-4,1.8-4.6c4.4-2.4,8.1,2.1,8.1,2.1c-2.2-1-4.1,1.2-5.2,2.1C86.3,69.4,84.7,67.1,84.7,67.1z M93.2,71.9
		c-2.6,2.5-5.2,0.6-5.2,0.6c-2.6-2.2,0.3-4,0.3-4c5.1-2.7,9.7-0.7,9.7-0.7C96.8,67.7,94.4,70.8,93.2,71.9z M99.7,59.9
		c0,0-4.6-3.6-2.1-8.1c0.6-1.1,2.3-3.5,4.6-1.8c0,0,2.3,1.6-0.3,4.7C100.9,55.8,98.6,57.7,99.7,59.9z M108,57.2
		c-0.7,1.1-2.9,3-2.6,4.6c0,0-4-2.2-2.1-7.6c0.5-1.4,1.7-1.8,3.8-1.2C108,53.3,109.6,54.6,108,57.2z M107.9,51.7
		c-1.2,0-2.2-1-2.2-2.2c0-1.2,1-2.2,2.2-2.2c1.2,0,2.2,1,2.2,2.2C110,50.7,109.1,51.7,107.9,51.7z M107.9,45.9c-1.2,0-2.2-1-2.2-2.2
		c0-1.2,1-2.2,2.2-2.2c1.2,0,2.2,1,2.2,2.2C110,44.9,109.1,45.9,107.9,45.9z"/>
</g>
<g id="x4LDV8_29_">
	<g>
		<path fill="#FFFFFF" d="M54.1,109.7c-0.7-1-4.5-5.6-4.7-5.9c0,3,0,6,0,9.1c-1.1,0-2,0-3,0c0-5,0-10.2,0-15.2c1,0,2.3,0,2.3,0
			s4.4,5.9,6.3,8.4c2.1-2.9,4.2-5.7,6.3-8.4c0.7,0,1.4,0,2.3,0c0,5.1,0,10.1,0,15.2c-1,0-1.9,0-2.9,0c0-3,0-6.1,0-9.1
			c-0.3,0.4-3.3,3.9-4.9,5.9C55.1,109.7,54.7,109.7,54.1,109.7z"/>
		<path fill="#FFFFFF" d="M98.9,113c-1.1,0-1.9,0-2.8,0c-0.2-3.9-2.1-4.3-5.1-4.2c0,1.4,0,2.7,0,4.2c-1.1,0-2,0-3.1,0c0-5,0-10,0-15
			c0,0,0.1-0.1,0.2-0.1c2.6-0.1,5.2-0.5,7.7,0.4c3.2,1.2,4.4,5,2.4,7.8c-0.4,0.6-1.1,1.1-1.7,1.6C98.1,109,98.9,110.7,98.9,113z
			 M91,106c1-0.3,1.8-0.1,2.7-0.2c1.3-0.2,2.2-1.1,2.3-2.4c0.1-1.4-0.6-2.6-1.9-2.9c-1-0.2-2,0-3.1-0.3C91,102.2,91,104,91,106z"/>
		<path fill="#FFFFFF" d="M135.1,104.5c0-2.3,0-4.5,0-6.8c1.1,0,2,0,3.1,0c0,5.1,0,10.1,0,15.2c-1,0-1.9,0-3,0c0-1.9,0-3.8,0-5.7
			c-1.9,0-5.7,0-7.6,0c0,1.9,0,3.7,0,5.7c-1.1,0-2,0-3.1,0c0-5,0-10,0-15.1c0.9,0,1.9,0,3,0c0,2.2,0,4.5,0,6.7
			C129.4,104.5,133.3,104.5,135.1,104.5z"/>
		<path fill="#FFFFFF" d="M119.8,103c-0.4,0-2.3,0-2.9,0c-1.7-3.5-5.9-3.8-8.4-1.3c-2.1,2.1-1.8,5.8,0.5,7.8
			c1.9,1.6,5.9,1.9,7.7-1.7c1,0,2,0,3,0c-0.8,3.2-4,5.5-8.1,5.4c-4.3-0.1-7.6-3.4-7.8-7.7c-0.1-4.3,3.1-7.8,7.6-8.1
			C115.7,97.2,118.8,99.5,119.8,103z"/>
		<path fill="#FFFFFF" d="M31.8,113c-1.2,0-2.2,0-3.2,0c-0.3-0.7-0.6-1.4-0.9-2.2c-2.2,0-4.4,0-6.6,0c-0.3,0.7-0.6,1.4-0.9,2.2
			c-1,0-2,0-3.2,0c2.1-5.2,4.1-10.2,6.2-15.2c0.9,0,1.6,0,2.5,0C27.6,102.7,29.6,107.8,31.8,113z M22,108c1.6,0,3,0,4.6,0
			c-0.8-1.9-1.5-3.7-2.2-5.6c-0.1,0-0.1,0-0.2,0C23.5,104.3,22.8,106.1,22,108z"/>
		<path fill="#FFFFFF" d="M149.5,97.7c0.9,0,1.6,0,2.5,0c2,5,4.1,10.1,6.1,15.3c-0.5,0-2.3,0-3.1,0c-0.3-0.7-0.6-1.5-0.9-2.2
			c-2.2,0-4.4,0-6.6,0c-0.3,0.7-0.6,1.5-0.9,2.2c-1,0-2,0-3.2,0C145.4,107.9,147.4,102.8,149.5,97.7z M150.9,102.5
			c-0.1,0-0.2,0-0.2,0c-0.7,1.9-1.4,3.7-2.2,5.5c1.6,0,3,0,4.6,0C152.3,106.1,151.6,104.3,150.9,102.5z"/>
		<path fill="#FFFFFF" d="M74.7,97.7c0.9,0,1.6,0,2.5,0c2,5,4,10,6.1,15.2c-1.2,0-2.1,0-3.2,0c-0.3-0.7-0.6-1.4-0.9-2.2
			c-2.2,0-4.4,0-6.6,0c-0.3,0.7-0.6,1.4-0.9,2.2c-1,0-2,0-3.2,0C70.6,107.8,72.7,102.8,74.7,97.7z M76.1,102.5c-0.1,0-0.2,0-0.2,0
			c-0.7,1.9-1.4,3.7-2.2,5.6c1.6,0,3,0,4.6,0C77.5,106.1,76.8,104.3,76.1,102.5z"/>
		<path fill="#FFFFFF" d="M7.5,110.3c0-4.3,0-8.4,0-12.6c-1,0-2,0-3,0c0,5.1,0,10.1,0,15.1c3.1,0,6.1,0,9.1,0c0-0.9,0-1.6,0-2.6
			C11.6,110.3,9.6,110.3,7.5,110.3z"/>
		<path fill="#FFFFFF" d="M88.4,102.8C88.5,102.8,88.5,102.8,88.4,102.8C88.5,102.8,88.4,102.8,88.4,102.8L88.4,102.8z"/>
		<path fill="#FFFFFF" d="M112.3,111.9C112.3,111.9,112.3,111.9,112.3,111.9C112.3,112,112.3,111.9,112.3,111.9L112.3,111.9z"/>
	</g>
</g>
<g>
	<path fill="#FFFFFF" d="M58.2,136.9h-0.5v-5.4h-2.1V131h4.6v0.5h-2.1V136.9z"/>
	<path fill="#FFFFFF" d="M66.3,136.9l-0.6-1.7h-2.7l-0.6,1.7h-0.5L64,131h0.6l2.2,5.8H66.3z M63.1,134.7h2.4l-1.2-3.2L63.1,134.7z"
		/>
	<path fill="#FFFFFF" d="M70.4,134.8l-0.9,0v2.1h-0.5V131h1.5c1.5,0,2.3,0.7,2.3,1.8C72.7,134.1,71.8,134.7,70.4,134.8z M70.5,131.5
		h-1v2.8h0.9c1.1,0,1.8-0.4,1.8-1.4C72.2,132,71.6,131.5,70.5,131.5z"/>
	<path fill="#FFFFFF" d="M78.9,136.9l-0.6-1.7h-2.7l-0.6,1.7h-0.5l2.2-5.8h0.6l2.2,5.8H78.9z M75.8,134.7h2.4l-1.2-3.2L75.8,134.7z"
		/>
	<path fill="#FFFFFF" d="M84.5,135.4c0-0.7-0.6-1-1.5-1.3c-0.8-0.3-1.7-0.6-1.7-1.6c0-0.9,0.8-1.6,1.8-1.6c0.7,0,1.3,0.2,1.7,0.5
		l-0.2,0.5c-0.4-0.3-1-0.5-1.5-0.5c-0.9,0-1.3,0.5-1.3,1c0,0.7,0.6,0.9,1.5,1.2c0.8,0.3,1.7,0.6,1.7,1.7c0,1-0.8,1.7-1.9,1.7
		c-0.7,0-1.3-0.2-1.8-0.5l0.2-0.5c0.5,0.3,1,0.5,1.7,0.5C83.9,136.5,84.5,136,84.5,135.4z"/>
	<path fill="#FFFFFF" d="M94,135.3c0,0.9-0.6,1.6-2.1,1.6h-2V131h2c1.4,0,2,0.7,2,1.5c0,0.6-0.3,1.1-1.1,1.3
		C93.6,134.1,94,134.6,94,135.3z M91.8,131.5h-1.4v2.2h1.4c0.9,0,1.5-0.4,1.5-1.1C93.3,132,92.8,131.5,91.8,131.5z M91.8,134.2h-1.4
		v2.2h1.5c1.1,0,1.5-0.4,1.5-1.1C93.5,134.6,93,134.2,91.8,134.2z"/>
	<path fill="#FFFFFF" d="M100.3,136.9l-0.6-1.7h-2.7l-0.6,1.7h-0.5L98,131h0.6l2.2,5.8H100.3z M99.5,134.7l-1.2-3.2l-1.2,3.2H99.5"
		/>
	<path fill="#FFFFFF" d="M102.9,136.9V131h1.5c1.5,0,2.2,0.7,2.2,1.7c0,0.9-0.5,1.4-1.2,1.7l1.5,2.4h-0.6l-1.4-2.3l-1.5,0.1v2.2
		H102.9z M106.1,132.8c0-0.8-0.5-1.3-1.7-1.3h-1v2.7l1.1,0C105.5,134.1,106.1,133.6,106.1,132.8z"/>
</g>
<path fill="#FFFFFF" d="M120.9,119.5c0,0-1.2-0.4-1.5,1.4c-0.1,0.4-0.1,1.1-0.5,1.6l-75.7,0c-0.7,0.1-1.5,0.5-2,1.4
	c-0.2,0.5-0.4,1.8,0.6,2.1c0,0,1.2,0.4,1.5-1.4c0.1-0.4,0.1-1.1,0.4-1.5h75.1v0c0.8,0,2-0.2,2.6-1.5
	C121.7,121.1,121.9,119.7,120.9,119.5z"/>
</svg>
